<?xml version="1.0" encoding="utf-8"?>
<!-- Generator: Adobe Illustrator 23.1.1, SVG Export Plug-In . SVG Version: 6.00 Build 0)  -->
<svg version="1.1" id="Layer_1" xmlns="http://www.w3.org/2000/svg" xmlns:xlink="http://www.w3.org/1999/xlink" x="0px" y="0px"
	 viewBox="0 0 500 176" style="enable-background:new 0 0 500 176;" xml:space="preserve">
<style type="text/css">
	.st0{fill:#0166FF;}
	.st1{fill:#FFFFFF;}
</style>
<g>
	<path class="st0" d="M44,44v88l78-17.6V44H44z"/>
	<path class="st1" d="M67.6,90.4L62.7,101H57l20.3-44l20.2,44h-5.7L87,90.4H67.6z M77.2,68.4l-7.4,17.1h15.1L77.2,68.4z"/>
	<path class="st1" d="M88.9,61.9h1.5c2.3,0,4.4,0.2,6,1h7.1C101,58.2,95,57,88.8,57h-9.2l2.6,5.9h6.6V61.9z"/>
	<path class="st1" d="M88.9,70.5v-5.9h-5.8l2.7,5.9H88.9z"/>
	<path class="st1" d="M99.6,70.5h5.1c0.1-0.5,0.1-1,0.1-1.4c0-1.7-0.2-3.2-0.7-4.5h-5.7c0.8,1.1,1.2,2.5,1.2,4.5
		C99.8,69.6,99.7,70.1,99.6,70.5z"/>
	<path class="st1" d="M102.2,78.1c-0.6-0.3-1.2-0.4-1.9-0.6v-0.1c2-1,3.5-3,4.2-5.2h-5c-1.2,3.5-4.8,4.3-9.1,4.3H89v-4.3h-2.4
		l2.6,5.9H102.2z"/>
	<path class="st1" d="M90,79.9h15c1.8,1.5,3,3.6,3.6,5.9h-5.5c-1.5-4-6.6-4.9-10.8-4.9h-1.8L90,79.9z"/>
	<path class="st1" d="M101.8,93.3h6.3c0.6-1.3,0.9-2.9,0.9-4.7c0-0.4-0.1-0.8-0.1-1.2h-5.4c0.1,0.3,0.1,0.6,0.1,0.8
		C103.6,90.6,102.9,92.2,101.8,93.3z"/>
	<path class="st1" d="M99,95.1c-0.6,0.2-1.2,0.4-1.8,0.6l2.1,4.6c3.3-0.8,6.2-2.5,7.9-5.2H99z"/>
	<path d="M155.1,90.4L150,101h-6l21.3-44l21.3,44h-6l-5.1-10.6H155.1z M165.3,68.5l-7.9,17.1h15.8L165.3,68.5z"/>
	<path d="M221.5,65.9c-3.2-2.7-7.6-4.1-11.8-4.1c-10,0-17.6,7.9-17.6,17.3c0,9.2,7.6,17.2,17.5,17.2c4.4,0,8.6-1.5,11.9-4.3V98
		c-3.4,1.9-7.8,3-11.7,3c-12.7,0-23.2-9.6-23.2-21.8c0-12.5,10.6-22.2,23.7-22.2c3.9,0,7.9,1,11.3,2.9L221.5,65.9z"/>
	<path d="M262.6,65.9c-3.2-2.7-7.6-4.1-11.8-4.1c-10,0-17.6,7.9-17.6,17.3c0,9.2,7.6,17.2,17.5,17.2c4.4,0,8.6-1.5,11.9-4.3V98
		c-3.4,1.9-7.8,3-11.7,3c-12.7,0-23.2-9.6-23.2-21.8c0-12.5,10.6-22.2,23.7-22.2c3.9,0,7.9,1,11.3,2.9L262.6,65.9z"/>
	<path d="M270.2,57h23.9v5h-18.4v12.3h17.9v5h-17.9V96h18.4v5h-23.9V57z"/>
	<path d="M310.1,96h13.6v5h-19.1V57h5.5V96z"/>
	<path d="M368.7,62.8l-3.4-5.8h-6.4l3.4,5.8H368.7z"/>
	<path d="M390.1,62.8l3.4-5.8h-6.3l-3.5,5.8H390.1z"/>
	<path d="M415.1,95.1h-5.5v5.9h5.5V95.1z"/>
	<path d="M399,57v5h10.6v0.8h5.5V62h10.7v-5H399z"/>
	<path d="M432,57v5.8h5.6V62H456v-5H432z"/>
	<path d="M336,61.9h1.5c2.3,0,4.4,0.2,6,1h7.2c-2.7-4.6-8.6-5.9-14.9-5.9h-5.4v5.8h5.5L336,61.9z"/>
	<path d="M335.9,64.6h-5.5v5.9h5.5V64.6z"/>
	<path d="M346.9,70.5h5.2c0.1-0.5,0.1-1,0.1-1.4c0-1.7-0.2-3.2-0.7-4.4h-5.8c0.8,1.1,1.2,2.5,1.2,4.5C347,69.6,347,70.1,346.9,70.5z
		"/>
	<path d="M349.3,78.1c-0.6-0.3-1.3-0.4-2-0.6v-0.1c2.1-1,3.5-3,4.3-5.2h-5.2c-1.2,3.5-4.9,4.3-9.1,4.3h-1.4v-4.3h-5.5V78h18.9V78.1z
		"/>
	<path d="M336,85.8v-4.9h3.4c4.2,0,9.3,0.9,10.9,4.9h5.6c-0.6-2.3-1.9-4.4-3.7-5.9h-21.8v5.9H336z"/>
	<path d="M340.3,96.1H336v-1h-5.5v5.9h10.4c5.5,0,11-1.7,13.7-5.9h-8.3C344.5,95.9,342.3,96.1,340.3,96.1z"/>
	<path d="M335.9,87.5h-5.5v5.9h5.5V87.5z"/>
	<path d="M348.9,93.4h6.5c0.6-1.3,0.9-2.9,0.9-4.7c0-0.4-0.1-0.8-0.1-1.2h-5.5c0.1,0.3,0.1,0.6,0.1,0.8
		C350.8,90.6,350.1,92.2,348.9,93.4z"/>
	<path d="M385.6,70.5l3.5-5.9h-6.4l-3.4,5.9H385.6z"/>
	<path d="M373.1,70.5l-3.4-5.9h-6.3l3.4,5.9H373.1z"/>
	<path d="M381.2,78.1l3.4-5.9h-6.3l-2.1,3.6l-2-3.6h-6.4l3.5,5.9H381.2z"/>
	<path d="M373.4,85.8h5.6v-3.9l1.2-2h-7.9l1.1,2V85.8z"/>
	<path d="M378.9,95.1h-5.5v5.9h5.5V95.1z"/>
	<path d="M378.9,87.5h-5.5v5.9h5.5V87.5z"/>
	<path d="M415.1,64.6h-5.5v5.9h5.5V64.6z"/>
	<path d="M415.1,72.2h-5.5v5.9h5.5V72.2z"/>
	<path d="M415.1,79.9h-5.5v5.9h5.5V79.9z"/>
	<path d="M415.1,87.5h-5.5v5.9h5.5V87.5z"/>
	<path d="M437.5,64.6H432v5.9h5.5V64.6z"/>
	<path d="M437.5,79.9H432v5.9h5.5V79.9z"/>
	<path d="M437.6,96v-0.9H432v5.9h24v-5H437.6z"/>
	<path d="M437.5,87.5H432v5.9h5.5V87.5z"/>
	<path d="M455.5,78.1v-3.8h-17.9v-2.1H432v5.9h16.1H455.5z"/>
</g>
</svg>
